<svg width="483" height="513" viewBox="0 0 483 513" fill="none" xmlns="http://www.w3.org/2000/svg">
<path d="M197.835 87.8596L190.335 83.3853C188.959 82.4694 187.339 81.9879 185.686 82.0033C184.032 82.0187 182.422 82.5302 181.063 83.4716L13.6051 180.092C6.49324 184.208 0.648438 195.229 0.648438 204.709V351.626C0.648438 356.777 2.37586 360.389 5.09684 361.94L13.0724 366.761L197.835 87.8596Z" fill="#171717"/>
<path d="M13.1439 367.48C13.0119 367.483 12.8818 367.448 12.7695 367.379L4.79398 362.545C1.7565 360.82 0 356.792 0 351.626V204.709C0 195.013 5.9459 183.691 13.2448 179.474L180.703 82.853C182.168 81.8488 183.899 81.3032 185.676 81.2856C187.453 81.268 189.194 81.7785 190.68 82.7524L198.195 87.241C198.277 87.2923 198.349 87.3596 198.406 87.4391C198.462 87.5185 198.503 87.6083 198.523 87.7034C198.545 87.7985 198.547 87.8971 198.53 87.9931C198.514 88.089 198.477 88.1804 198.424 88.2625L13.7342 367.163C13.6697 367.262 13.582 367.341 13.4789 367.397C13.3758 367.452 13.2609 367.48 13.1439 367.48ZM185.784 82.7235C184.241 82.8088 182.75 83.3056 181.465 84.1622L14.0077 180.77C7.09759 184.754 1.48295 195.515 1.48295 204.766V351.683C1.48295 356.36 2.92251 359.9 5.57147 361.366L12.9567 365.84L196.856 88.1762L190.004 84.0761C188.741 83.2627 187.285 82.7962 185.784 82.7235Z" fill="#171717"/>
<path d="M162.266 103.598V46.0515C162.266 5.59581 133.834 -10.8051 98.7782 9.42277C63.723 29.6506 35.3047 78.8532 35.3047 119.309V176.856L51.6301 167.432V107.857C51.6301 77.8174 72.7352 41.275 98.7782 26.2553C124.821 11.2353 145.926 23.3778 145.926 53.4606V113.036L162.266 103.598Z" fill="#171717"/>
<path d="M35.2901 177.561C35.1651 177.56 35.042 177.531 34.9302 177.475C34.8209 177.409 34.7306 177.316 34.6681 177.204C34.605 177.094 34.5713 176.968 34.5703 176.841V119.295C34.5703 78.6668 63.2192 29.1043 98.4182 8.79019C115.607 -1.12222 131.803 -2.71908 144.027 4.34473C156.248 11.4085 162.986 26.1983 162.986 46.0662V103.613C162.986 103.739 162.951 103.862 162.889 103.97C162.825 104.079 162.735 104.169 162.625 104.232L146.286 113.655C146.177 113.718 146.053 113.751 145.926 113.751C145.8 113.751 145.676 113.718 145.566 113.655C145.457 113.593 145.367 113.503 145.304 113.394C145.241 113.286 145.207 113.162 145.207 113.037V53.4611C145.207 39.1895 140.426 28.5864 131.761 23.5799C123.093 18.5732 111.504 19.7529 99.138 26.8744C73.3398 41.7647 52.3501 78.0912 52.3501 107.857V167.434C52.3518 167.561 52.3192 167.687 52.256 167.799C52.1926 167.909 52.101 168.002 51.99 168.065L35.65 177.488C35.5381 177.543 35.4143 177.567 35.2901 177.561ZM127.124 1.43848C118.487 1.43848 109.028 4.3159 99.138 10.0705C64.3278 30.2121 36.0101 79.127 36.0101 119.324V175.633L50.9103 167.002V107.843C50.9103 77.6309 72.2313 40.7289 98.4182 25.6227C111.245 18.2135 123.338 16.9906 132.479 22.3138C141.622 27.6369 146.645 38.6427 146.645 53.4467V111.771L161.545 103.139V46.0376C161.545 26.7448 155.068 12.3726 143.306 5.59625C138.378 2.79734 132.792 1.36213 127.124 1.43848Z" fill="#171717"/>
<path d="M167.86 105.871V48.3244C167.86 7.86876 139.441 -8.53211 104.386 11.6957C69.3313 31.9235 40.8984 81.1261 40.8984 121.582V179.128L57.2382 169.705V110.13C57.2382 80.0903 78.3433 43.5481 104.386 28.5282C130.429 13.5085 151.533 25.6508 151.533 55.7336V115.309L167.86 105.871Z" fill="#FFFACD"/>
<path d="M40.8995 179.834C40.7746 179.832 40.6518 179.803 40.5396 179.748C40.4308 179.682 40.3405 179.588 40.2775 179.478C40.2144 179.367 40.1807 179.242 40.1797 179.115V121.568C40.1797 80.9396 68.8284 31.3773 104.027 11.0632C121.217 1.15083 137.412 -0.446256 149.636 6.61778C161.857 13.6816 168.582 28.4711 168.582 48.3392V105.886C168.58 106.012 168.546 106.135 168.482 106.243C168.421 106.352 168.331 106.442 168.22 106.505L151.895 115.928C151.786 115.991 151.662 116.025 151.535 116.025C151.409 116.025 151.285 115.991 151.175 115.928C151.064 115.868 150.972 115.778 150.909 115.669C150.845 115.56 150.813 115.436 150.816 115.31V55.7341C150.816 41.4623 146.037 30.8594 137.37 25.8527C128.703 20.8462 117.099 22.026 104.747 29.1475C78.9489 44.0377 57.9592 80.3642 57.9592 110.13V169.705C57.9599 169.833 57.9271 169.956 57.8636 170.064C57.8004 170.174 57.709 170.262 57.5993 170.324L41.2594 179.762C41.1469 179.814 41.0235 179.839 40.8995 179.834ZM132.734 3.71174C124.096 3.71174 114.638 6.58895 104.747 12.3438C69.9369 32.4851 41.6195 81.4 41.6195 121.611V177.922L56.5194 169.289V110.13C56.5194 79.9183 77.8261 43.0162 104.027 27.91C116.855 20.5009 128.947 19.278 138.09 24.6012C147.23 29.9242 152.254 40.9301 152.254 55.7341V114.058L167.141 105.426V48.2818C167.141 28.9892 160.677 14.6168 148.915 7.84068C143.984 5.05286 138.399 3.62771 132.734 3.71174Z" fill="#171717"/>
<path d="M189.705 269.622L21.9583 366.402C14.9186 370.458 9.20312 366.155 9.20312 356.776V209.901C9.20312 200.405 14.9618 189.387 22.1598 185.286L189.617 88.6643C196.729 84.5642 202.574 88.9234 202.574 98.4044V245.322C202.444 254.659 196.744 265.563 189.705 269.622Z" fill="#FFFACD"/>
<path d="M16.892 368.644C15.6199 368.655 14.3679 368.328 13.264 367.696C10.2266 365.955 8.48438 361.94 8.48438 356.776V209.901C8.48438 200.205 14.4303 188.883 21.7437 184.668L189.202 88.0456C192.528 86.118 195.781 85.8732 198.358 87.3695C201.41 89.1246 203.166 93.1241 203.166 98.404V245.322C203.166 254.919 197.292 266.111 190.065 270.282L22.3192 367.062C20.6798 368.055 18.8084 368.6 16.892 368.644ZM194.686 87.8011C193 87.8598 191.358 88.3556 189.922 89.2397L22.4635 185.861C15.5531 189.847 9.92416 200.608 9.92416 209.859V356.776C9.92416 361.438 11.3639 364.962 13.984 366.443C16.057 367.652 18.7635 367.407 21.5994 365.783L189.345 269.003C196.168 265.061 201.725 254.414 201.725 245.278V98.3608C201.725 93.642 200.287 90.0741 197.637 88.5636C196.737 88.0569 195.72 87.7941 194.686 87.8011Z" fill="#171717"/>
<path d="M127.479 186.019C127.479 169.791 114.061 164.916 99.3196 178.382C92.3056 184.791 87.3971 193.172 85.2401 202.422C81.4394 218.764 88.2201 227.971 98.6287 226.202L86.2477 285.188C86.064 286.042 86.1328 286.931 86.4457 287.747C86.7586 288.563 87.3022 289.269 88.0102 289.781C88.7184 290.293 89.5601 290.589 90.4334 290.633C91.3064 290.675 92.1731 290.463 92.9277 290.021L124.269 271.953C125.132 271.447 125.804 270.671 126.181 269.745C126.558 268.819 126.62 267.795 126.356 266.831L112.852 218.131C121.346 209.802 127.479 196.954 127.479 186.019Z" fill="#171717"/>
<path d="M90.6617 291.302C89.8838 291.297 89.1167 291.12 88.4158 290.783C87.7146 290.446 87.0968 289.958 86.6068 289.354C86.1168 288.75 85.7668 288.045 85.582 287.29C85.3968 286.535 85.3812 285.749 85.5364 284.987L97.7156 227.051C95.8804 227.3 94.0122 227.115 92.2618 226.51C90.5109 225.906 88.927 224.899 87.6383 223.569C83.5064 219.253 82.4267 211.615 84.6151 202.25C86.7747 192.835 91.7568 184.303 98.8962 177.792C106.642 170.713 114.516 168.167 120.491 170.799C125.429 172.972 128.265 178.496 128.265 185.962C128.265 196.681 122.506 209.602 113.724 218.232L127.113 266.529C127.425 267.645 127.357 268.833 126.919 269.906C126.481 270.979 125.699 271.877 124.694 272.457L93.3538 290.541C92.5414 291.032 91.6113 291.295 90.6617 291.302ZM98.6227 225.484C98.8171 225.484 99.0035 225.561 99.1409 225.7C99.2259 225.781 99.2882 225.885 99.3211 225.997C99.3539 226.112 99.3563 226.233 99.3281 226.347L86.9471 285.333C86.8002 286.048 86.8635 286.792 87.1289 287.472C87.3941 288.154 87.8506 288.745 88.4435 289.174C89.0365 289.601 89.7404 289.849 90.4707 289.887C91.2013 289.926 91.9272 289.753 92.5618 289.389L123.903 271.306C124.635 270.885 125.206 270.232 125.524 269.45C125.843 268.667 125.89 267.802 125.659 266.989L112.141 218.276C112.108 218.151 112.109 218.02 112.145 217.896C112.18 217.772 112.248 217.66 112.342 217.572C120.98 209.183 126.739 196.51 126.739 186.035C126.739 179.172 124.219 174.123 119.828 172.182C114.473 169.822 106.987 172.353 99.7889 178.928C92.8696 185.226 88.0339 193.481 85.9252 202.593C83.8953 211.34 84.8598 218.621 88.6028 222.592C89.8683 223.876 91.4415 224.815 93.1728 225.319C94.9044 225.822 96.7359 225.873 98.4931 225.469L98.6227 225.484Z" fill="#171717"/>
<path d="M381.636 335.787L85.1146 506.804C75.395 499.814 68.6328 498.634 68.6328 486.68V309.586C68.6328 296.303 76.6909 280.977 86.6099 275.25L378.978 106.607C386.222 102.971 391.09 102.34 404.747 111.372V306.879C404.681 320.096 391.572 330.058 381.636 335.787Z" fill="#171717"/>
<path d="M85.1171 507.7C84.9453 507.698 84.7777 507.646 84.6354 507.55C82.6417 506.122 80.7475 504.909 79.0529 503.83C72.2908 499.529 67.8047 496.675 67.8047 486.746V309.586C67.8047 296.102 76.1121 280.38 86.1972 274.534L378.498 105.892C386.024 102.106 391.077 101.359 405.082 110.674C405.199 110.749 405.296 110.852 405.362 110.974C405.428 111.096 405.464 111.232 405.464 111.371V306.879C405.464 320.162 392.704 330.34 382.005 336.5L85.4827 507.517C85.3812 507.612 85.2543 507.676 85.1171 507.7ZM387.504 104.913C384.576 105.029 381.722 105.868 379.196 107.353L87.028 275.963C77.3416 281.558 69.4663 296.635 69.4663 309.586V486.746C69.4663 495.761 73.4204 498.268 79.95 502.435C81.6116 503.432 83.2729 504.561 85.1671 505.888L381.223 335.072C391.541 329.111 403.854 319.381 403.854 306.846V111.803C396.211 106.789 391.508 104.913 387.537 104.913H387.504Z" fill="#171717"/>
<path d="M391.44 335.486L96.4146 505.673C86.4458 511.402 78.4375 505.325 78.4375 492.093V315.795C78.4375 302.512 86.4791 287.204 96.4146 281.475L391.44 111.338C401.409 105.61 409.417 111.687 409.417 124.92V301.218C409.417 314.349 401.36 329.726 391.44 335.486Z" fill="#FFE603"/>
<path d="M89.271 508.662C87.5217 508.664 85.8027 508.206 84.2865 507.335C80.0663 504.909 77.6406 499.347 77.6406 492.092V315.795C77.6406 302.329 85.9478 286.605 96.0331 280.746L391.059 110.525C395.645 107.885 400.114 107.553 403.653 109.578C407.856 112.019 410.298 117.581 410.298 124.837V301.134C410.298 314.6 401.993 330.322 391.907 336.168L96.8304 506.388C94.5542 507.796 91.9469 508.581 89.271 508.662ZM398.585 109.927C396.202 110.005 393.881 110.709 391.857 111.969L96.8304 282.19C87.1442 287.767 79.2689 302.86 79.2689 315.795V492.092C79.2689 498.733 81.3789 503.714 85.0673 505.906C88.0581 507.566 91.9457 507.302 95.9999 504.96L391.026 334.74C400.713 329.145 408.587 314.067 408.587 301.134V124.837C408.587 118.196 406.477 113.215 402.79 111.023C401.51 110.292 400.059 109.913 398.585 109.927Z" fill="#171717"/>
<path d="M156.19 406.883L110.384 433.316C107.477 434.975 105.117 433.217 105.117 429.329V423.486C105.146 421.514 105.638 419.576 106.552 417.829C107.467 416.081 108.779 414.573 110.384 413.425L156.19 386.957C159.097 385.298 161.458 387.074 161.458 390.943V396.688C161.449 398.683 160.967 400.647 160.053 402.419C159.137 404.191 157.813 405.721 156.19 406.883ZM228.448 365.14L182.642 391.557C179.735 393.217 177.374 391.456 177.374 387.571V381.827C177.407 379.857 177.898 377.92 178.814 376.172C179.728 374.424 181.039 372.915 182.642 371.766L228.448 345.349C231.355 343.689 233.714 345.448 233.714 349.317V355.079C233.683 357.051 233.189 358.988 232.273 360.734C231.359 362.48 230.049 363.989 228.448 365.14ZM300.705 323.45L254.9 349.865C251.99 351.527 249.631 349.766 249.631 345.881V340.137C249.664 338.164 250.156 336.228 251.07 334.48C251.986 332.733 253.297 331.224 254.9 330.073L300.705 303.659C303.613 301.997 305.972 303.758 305.972 307.643V313.387C305.94 315.359 305.448 317.296 304.533 319.044C303.619 320.791 302.308 322.3 300.705 323.45ZM372.963 281.758L327.157 308.173C324.248 309.835 321.889 308.074 321.889 304.204V298.444C321.922 296.472 322.413 294.535 323.327 292.788C324.244 291.041 325.555 289.532 327.157 288.381L372.963 261.966C375.87 260.305 378.229 262.066 378.229 265.95V271.695C378.198 273.667 377.706 275.604 376.791 277.352C375.877 279.099 374.566 280.608 372.963 281.758Z" fill="#FFFACD"/>
<path d="M143.597 351.941L118.99 366.137C114.72 368.594 111.281 365.988 111.281 360.309V334.673C111.281 328.995 114.72 322.403 118.99 319.946L143.597 305.734C147.867 303.276 151.323 305.884 151.323 311.56V337.147C151.356 342.892 147.867 349.484 143.597 351.941Z" fill="white"/>
<path d="M111.281 359.878C111.133 359.878 110.988 359.84 110.86 359.767C110.732 359.694 110.625 359.589 110.55 359.462C110.495 359.367 110.459 359.264 110.444 359.156C110.43 359.046 110.438 358.936 110.468 358.83C110.497 358.724 110.547 358.627 110.616 358.542C110.684 358.456 110.769 358.385 110.866 358.333L150.907 335.222C151.049 335.14 151.212 335.102 151.375 335.113C151.538 335.123 151.695 335.182 151.825 335.282C151.955 335.381 152.052 335.517 152.105 335.672C152.157 335.827 152.163 335.995 152.12 336.153C152.065 336.368 151.927 336.551 151.737 336.665L111.696 359.761C111.572 359.838 111.428 359.878 111.281 359.878ZM111.281 348.322C111.134 348.322 110.989 348.283 110.861 348.21C110.732 348.138 110.625 348.033 110.55 347.906C110.443 347.715 110.415 347.488 110.475 347.277C110.534 347.065 110.675 346.885 110.866 346.777L150.907 323.664C151.098 323.558 151.325 323.53 151.537 323.589C151.748 323.649 151.929 323.789 152.037 323.981C152.094 324.073 152.129 324.177 152.145 324.285C152.16 324.392 152.153 324.503 152.127 324.608C152.098 324.714 152.05 324.813 151.984 324.899C151.916 324.985 151.834 325.057 151.737 325.11L111.697 348.206C111.572 348.283 111.428 348.322 111.281 348.322ZM111.281 336.765C111.134 336.767 110.989 336.727 110.861 336.654C110.733 336.582 110.626 336.477 110.55 336.351C110.443 336.159 110.415 335.933 110.475 335.721C110.534 335.51 110.675 335.329 110.866 335.222L150.907 312.126C151.094 312.04 151.308 312.029 151.504 312.091C151.698 312.155 151.865 312.287 151.968 312.465C152.072 312.643 152.105 312.852 152.063 313.053C152.019 313.255 151.905 313.433 151.737 313.554L111.697 336.665C111.568 336.73 111.426 336.764 111.281 336.765Z" fill="#171717"/>
<path d="M131.309 354.166C127.987 356.077 125.328 354.049 125.328 349.667V329.112C125.328 324.712 128.003 319.614 131.309 317.706C134.632 315.813 137.273 317.838 137.273 322.22V342.776C137.273 347.11 134.599 352.273 131.309 354.166Z" fill="white"/>
<path d="M128.928 355.709C128.245 355.718 127.573 355.542 126.984 355.194C126.119 354.573 125.433 353.735 124.996 352.764C124.558 351.793 124.385 350.724 124.492 349.665V329.112C124.513 326.728 125.105 324.384 126.218 322.275C127.331 320.167 128.933 318.355 130.889 316.99C131.576 316.515 132.38 316.235 133.212 316.18C134.047 316.125 134.88 316.297 135.624 316.676C136.476 317.305 137.148 318.146 137.578 319.117C138.006 320.086 138.174 321.15 138.067 322.205V342.758C138.067 347.475 135.258 352.72 131.686 354.864C130.858 355.384 129.906 355.675 128.928 355.709ZM133.664 317.82C132.973 317.852 132.303 318.064 131.719 318.434C128.644 320.195 126.153 325.077 126.153 329.112V349.665C126.058 350.434 126.16 351.214 126.451 351.932C126.742 352.65 127.211 353.282 127.815 353.768C128.31 353.988 128.855 354.074 129.394 354.018C129.933 353.963 130.449 353.767 130.889 353.451C132.581 352.225 133.964 350.622 134.928 348.769C135.891 346.916 136.408 344.864 136.437 342.776V322.205C136.534 321.434 136.432 320.655 136.142 319.938C135.851 319.219 135.381 318.587 134.776 318.102C134.437 317.911 134.053 317.813 133.664 317.82ZM167.591 322.286C167.371 322.431 167.107 322.495 166.845 322.469C166.162 322.387 165.946 321.507 166.362 320.477C166.73 319.599 166.926 318.657 166.944 317.704C166.988 316.94 166.763 316.183 166.312 315.562C166.133 315.135 166.083 314.666 166.168 314.21C166.255 313.756 166.472 313.337 166.794 313.004C167.459 312.126 168.356 311.86 168.772 312.408C169.48 313.46 169.829 314.712 169.767 315.978C169.732 317.603 169.395 319.208 168.772 320.71C168.556 321.348 168.142 321.901 167.591 322.286ZM172.959 322.9C172.736 323.041 172.476 323.11 172.212 323.101C171.532 323.101 171.316 322.121 171.714 321.109C172.637 318.902 173.139 316.542 173.192 314.151C173.272 312.289 172.754 310.451 171.714 308.904C171.543 308.472 171.499 308.001 171.589 307.546C171.677 307.088 171.893 306.668 172.212 306.331C172.893 305.468 173.791 305.219 174.19 305.765C175.513 307.752 176.17 310.107 176.067 312.491C176.005 315.549 175.368 318.566 174.19 321.39C173.95 322.011 173.519 322.54 172.959 322.9ZM178.141 323.55C177.919 323.695 177.657 323.765 177.392 323.748C176.712 323.748 176.496 322.768 176.91 321.738C178.395 318.208 179.196 314.428 179.271 310.599C179.413 307.611 178.585 304.658 176.91 302.18C176.732 301.753 176.681 301.284 176.767 300.828C176.853 300.374 177.071 299.955 177.392 299.622C178.058 298.759 178.954 298.495 179.37 299.041C181.353 301.975 182.326 305.47 182.145 309.005C182.053 313.513 181.11 317.961 179.37 322.121C179.117 322.711 178.688 323.211 178.141 323.55Z" fill="#171717"/>
<path d="M183.404 324.179C183.19 324.324 182.931 324.388 182.673 324.364C181.992 324.364 181.776 323.4 182.175 322.37C184.239 317.517 185.366 312.318 185.499 307.046C185.671 302.915 184.505 298.839 182.175 295.422C182.003 294.993 181.959 294.524 182.05 294.071C182.138 293.617 182.353 293.199 182.673 292.865C183.356 292.002 184.237 291.736 184.651 292.284C187.233 296.138 188.514 300.717 188.307 305.351C188.184 311.292 186.944 317.155 184.651 322.636C184.411 323.27 183.974 323.811 183.404 324.179ZM182.79 435.64L108.108 478.809C106.446 479.755 105.117 478.809 105.117 476.551V475.289C105.134 474.17 105.413 473.07 105.933 472.078C106.452 471.086 107.197 470.229 108.108 469.578L182.79 426.409C184.452 425.445 185.781 426.409 185.781 428.667V429.928C185.769 431.048 185.492 432.149 184.972 433.142C184.452 434.134 183.704 434.991 182.79 435.64Z" fill="#171717"/>
<path d="M449.074 427.056C484.788 365.239 484.785 298.422 449.069 277.816C413.356 257.21 355.452 290.617 319.738 352.434C284.024 414.25 284.024 481.067 319.74 501.673C355.456 522.28 413.36 488.872 449.074 427.056Z" fill="#FFE603"/>
<path d="M343.555 508.42C335.115 508.53 326.796 506.39 319.455 502.224C302.005 492.156 292.391 470.969 292.391 442.58C292.391 384.21 333.538 312.987 384.178 283.803C408.802 269.608 431.95 267.337 449.403 277.405C466.854 287.472 476.468 308.659 476.468 337.048C476.468 395.418 435.32 466.639 384.737 495.825C370.185 504.249 356.182 508.42 343.555 508.42ZM425.268 272.338C412.833 272.338 399.032 276.509 384.702 284.776C334.432 313.781 293.532 384.567 293.532 442.58C293.532 470.544 302.945 491.395 320.039 501.262C337.13 511.127 359.898 508.847 384.143 494.852C434.413 465.847 475.316 395.059 475.316 337.048C475.316 309.084 465.902 288.234 448.808 278.366C441.628 274.305 433.496 272.224 425.246 272.338H425.268Z" fill="#171717"/>
<path d="M455.662 431.636C491.374 369.824 491.374 303.014 455.665 282.412C419.953 261.808 362.056 295.213 326.346 357.025C290.635 418.837 290.635 485.645 326.344 506.249C362.053 526.853 419.953 493.448 455.662 431.636Z" fill="white"/>
<path d="M350.151 512.996C341.711 513.11 333.392 510.975 326.051 506.811C308.601 496.743 298.984 475.556 298.984 447.164C298.984 388.808 340.132 317.585 390.706 288.401C415.332 274.206 438.48 271.935 455.931 282.002C473.381 292.07 482.995 313.255 482.995 341.646C482.995 400.005 441.848 471.226 391.21 500.401C376.768 508.723 362.767 512.996 350.151 512.996ZM431.864 276.969C419.429 276.969 405.625 281.142 391.298 289.407C341.028 318.412 300.138 389.2 300.138 447.2C300.138 475.164 309.552 496.014 326.643 505.871C343.737 515.725 366.494 513.467 390.739 499.472C441.009 470.467 481.909 399.679 481.909 341.679C481.909 313.715 472.496 292.865 455.404 283.008C448.226 278.926 440.089 276.83 431.831 276.936L431.864 276.969Z" fill="#171717"/>
<path d="M387.397 445.03C386.564 445.583 385.63 445.967 384.648 446.159C383.666 446.35 382.657 446.346 381.677 446.148L347.613 436.806C343.327 435.688 342.419 429.211 345.578 422.445C348.734 415.676 354.767 411.158 359.009 412.377L385.324 419.581L427.458 329.354C430.626 322.64 436.647 318.067 440.889 319.286C445.133 320.505 446.072 326.88 442.916 333.648L395.154 436.012C393.714 439.15 391.55 441.903 388.839 444.044C388.377 444.4 387.897 444.728 387.397 445.03Z" fill="#FFE603"/>
<path d="M279.439 104.112C299.61 69.2006 299.61 31.4661 279.439 19.8294C259.271 8.19248 226.57 27.06 206.402 61.971C186.231 96.8822 186.231 134.617 206.399 146.253C226.57 157.89 259.271 139.023 279.439 104.112Z" fill="#171717"/>
<path d="M219.949 150.285C215.148 150.344 210.418 149.128 206.241 146.762C196.329 141.042 190.867 129.019 190.867 112.911C190.867 79.8929 214.146 39.5988 242.767 23.0899C256.716 15.0612 269.882 13.7465 279.783 19.4769C289.685 25.2073 295.158 37.2103 295.158 53.318C295.158 86.3361 271.88 126.63 243.269 143.139C235.043 147.886 227.109 150.285 219.949 150.285ZM266.074 16.9578C259.097 16.9578 251.322 19.3063 243.269 23.9831C214.927 40.3415 191.872 80.2442 191.872 112.941C191.872 128.677 197.153 140.389 206.743 145.919C216.335 151.449 229.129 150.174 242.767 142.306C271.107 125.958 294.154 86.0449 294.154 53.3481C294.154 37.6219 288.872 25.9099 279.28 20.3701C275.259 18.0834 270.701 16.9058 266.074 16.9578Z" fill="#171717"/>
<path d="M285.119 106.533C305.287 71.6216 305.287 33.8871 285.119 22.2502C264.951 10.6135 232.25 29.4809 212.079 64.3919C191.911 99.3031 191.911 137.038 212.079 148.674C232.248 160.311 264.948 141.444 285.119 106.533Z" fill="#FFE603"/>
<path d="M225.628 152.694C220.83 152.758 216.101 151.542 211.93 149.171C202.008 143.451 196.555 131.428 196.555 115.33C196.555 82.3018 219.833 42.0077 248.446 25.4988C262.405 17.47 275.561 16.1652 285.472 21.8857C295.383 27.6063 300.848 39.6292 300.848 55.7268C300.848 88.755 277.57 129.049 248.948 145.558C240.733 150.295 232.799 152.694 225.628 152.694ZM271.764 19.3669C264.733 19.3669 257.011 21.7152 248.948 26.3919C220.606 42.7404 197.559 82.6432 197.559 115.35C197.559 131.076 202.843 142.788 212.433 148.318C222.022 153.847 234.817 152.573 248.446 144.705C276.785 128.356 299.844 88.4539 299.844 55.7468C299.844 40.0206 294.56 28.3088 284.97 22.7789C280.949 20.4894 276.391 19.3117 271.764 19.3669Z" fill="#171717"/>
<path d="M264.531 85.3819C263.654 83.9759 262.448 82.8047 261.016 81.9698C259.614 81.1583 258.154 80.4538 256.646 79.8623L252.992 78.2666C251.153 77.6378 249.378 76.8381 247.688 75.878C247.114 75.5856 246.632 75.1403 246.294 74.5913C245.955 74.0426 245.774 73.4115 245.77 72.7668C245.773 71.7196 246.069 70.6941 246.625 69.8062C247.171 68.8768 247.954 68.1083 248.893 67.5783C249.328 67.2779 249.829 67.0855 250.354 67.0173C250.878 66.9493 251.411 67.0074 251.906 67.187C252.868 67.5795 253.69 68.2505 254.267 69.1138C254.923 70.0346 255.434 71.0499 255.783 72.1246L265.143 61.7977C264.005 57.5825 261.996 54.9599 259.117 53.9294C257.211 53.3113 255.158 53.3113 253.252 53.9294V42.6592L244.134 47.928V59.2084C242.903 60.2698 241.749 61.4167 240.68 62.6407C238.273 65.3625 236.301 68.4396 234.835 71.7632C233.432 74.8404 232.689 78.1769 232.654 81.5582C232.654 85.2648 233.443 87.9109 235.015 89.4967C236.87 91.2623 239.068 92.6285 241.473 93.511L245.219 94.9562C247.16 95.6064 249.028 96.4573 250.792 97.4954C251.323 97.8849 251.745 98.4041 252.019 99.0033C252.29 99.6029 252.404 100.262 252.349 100.918C252.343 101.897 252.049 102.853 251.505 103.667C250.849 104.618 249.979 105.402 248.964 105.955C248.347 106.389 247.618 106.632 246.864 106.655C246.111 106.678 245.368 106.481 244.726 106.086C243.209 104.978 242.049 103.45 241.391 101.69L231.5 112.429C233.401 116.61 235.852 119.002 238.852 119.604C240.616 119.899 242.427 119.772 244.134 119.233V128.376L253.252 123.117V114.476C254.898 113.222 256.431 111.825 257.831 110.301C260.238 107.674 262.208 104.679 263.668 101.429C265.119 98.2814 265.879 94.8593 265.897 91.3934C266.014 89.3013 265.541 87.2182 264.531 85.3819Z" fill="white"/>
</svg>
